<svg width="100" height="62" viewBox="0 0 100 62" fill="currentColor" xmlns="http://www.w3.org/2000/svg">
    <path d="M0 0.378906H4.11322C6.03142 0.378906 7.32582 0.702506 8.17186 1.377C8.65638 1.79591 9.04197 2.31706 9.30085 2.90292C9.55973 3.48877 9.68546 4.12475 9.66899 4.76504C9.67694 5.59678 9.46151 6.41541 9.04519 7.1355C8.72387 7.55261 8.31539 7.89457 7.84826 8.13749C8.97111 8.38701 9.49355 8.63654 10.016 9.18627C10.8012 10.0334 11.2298 11.1504 11.2129 12.3053C11.222 12.9459 11.0957 13.5813 10.8425 14.1698C10.5892 14.7583 10.2145 15.2868 9.74307 15.7206C8.77227 16.594 7.45058 16.9916 5.60646 16.9916H0V0.378906ZM4.16001 7.30705C5.83259 7.30705 6.67862 6.58578 6.67862 5.13933C6.67862 3.69288 5.83259 2.99499 4.21069 2.99499H3.23989V7.30705H4.16001ZM4.63566 14.3756C6.82678 14.3756 7.87555 13.627 7.87555 12.0831C7.89034 11.7169 7.80839 11.3533 7.63797 11.0289C7.46754 10.7044 7.21465 10.4306 6.90475 10.235C6.33163 9.84516 5.80529 9.76329 4.46021 9.76329H3.23989V14.3756H4.63566Z"/>
    <path d="M27.6775 17.0033H23.6929L19.2054 10.3247H18.7804V17.0033H15.5405V0.378906H20.3516C22.1958 0.378906 23.6656 0.768785 24.5896 1.54854C25.0969 2.01854 25.5043 2.58598 25.7875 3.21695C26.0706 3.84792 26.2236 4.52947 26.2375 5.22092C26.2513 5.91236 26.1256 6.59949 25.8679 7.24128C25.6103 7.88306 25.2259 8.46633 24.7378 8.95624C24.0908 9.51976 23.2946 9.88401 22.4453 10.005L27.6775 17.0033ZM19.7278 8.03612C21.7708 8.03612 22.8936 7.1394 22.8936 5.49412C22.8936 3.84883 21.8215 2.99889 19.7746 2.99889H18.7804V8.03223L19.7278 8.03612Z"/>
    <path d="M47.7014 8.70209C47.7014 13.6146 43.8026 17.3769 38.7342 17.3769C37.5726 17.3986 36.4186 17.1858 35.3412 16.7513C34.2638 16.3167 33.2851 15.6694 32.4636 14.8479C31.6421 14.0264 30.9948 13.0477 30.5602 11.9703C30.1257 10.8929 29.9129 9.73888 29.9346 8.57733C29.9346 3.8442 33.9231 0 38.855 0C43.787 0 47.7014 3.81691 47.7014 8.70209ZM33.2759 8.62802C33.2759 11.8406 35.7438 14.4099 38.8355 14.4099C39.9713 14.4416 41.0908 14.1345 42.0514 13.5278C43.012 12.921 43.7703 12.0421 44.2298 11.0029C44.6892 9.96376 44.8289 8.81137 44.6311 7.69252C44.4334 6.57366 43.9071 5.53899 43.1193 4.72027C42.3315 3.90155 41.3178 3.33583 40.2074 3.09517C39.097 2.85451 37.94 2.94979 36.884 3.36887C35.8279 3.78796 34.9204 4.5119 34.2772 5.44847C33.634 6.38505 33.284 7.49189 33.272 8.62802H33.2759Z"/>
    <path d="M55.2457 9.89974C55.2457 11.5957 55.3432 12.1415 55.7682 12.8667C56.0882 13.3493 56.5228 13.7451 57.033 14.0189C57.5432 14.2927 58.1132 14.436 58.6923 14.436C59.2713 14.436 59.8413 14.2927 60.3515 14.0189C60.8618 13.7451 61.2963 13.3493 61.6164 12.8667C62.0374 12.1415 62.1388 11.5957 62.1388 9.89974V0.378906H65.3787V10.5469C65.3787 12.4963 64.9888 13.8609 64.1584 14.9838C63.0121 16.4809 60.9653 17.3776 58.7001 17.3776C56.4349 17.3776 54.3841 16.4809 53.2145 14.9838C52.3684 13.8609 51.9941 12.4924 51.9941 10.5469V0.378906H55.234L55.2457 9.89974Z"/>
    <path d="M22.2739 33.8413L26.3364 22.375H28.1065L31.9663 33.8413L35.9548 22.5349H39.3701L33.132 39.4829H30.8473L27.1591 28.6053L23.2603 39.4712H21.0029L15.1196 22.5232H18.535L22.2739 33.8413Z"/>
    <path d="M44.7931 25.3423V29.0305H50.5243V31.8454H44.7931V36.3329H50.7505V39.1479H41.5532V22.5234H50.7505V25.3423H44.7931Z"/>
    <path d="M66.5486 39.1479H62.5718L58.0882 32.4692H57.6632V39.1479H54.4233V22.5234H59.2344C61.0786 22.5234 62.5484 22.9133 63.4724 23.6931C63.9793 24.1634 64.3862 24.7309 64.669 25.3618C64.9518 25.9928 65.1047 26.6742 65.1185 27.3655C65.1324 28.0568 65.0069 28.7438 64.7495 29.3855C64.4922 30.0272 64.1082 30.6106 63.6206 31.1008C62.9722 31.6614 62.1765 32.024 61.3281 32.1456L66.5486 39.1479ZM58.5989 30.1807C60.6419 30.1807 61.7648 29.2839 61.7648 27.6386C61.7648 25.9934 60.6926 25.1473 58.6457 25.1473H57.6476V30.1807H58.5989Z"/>
    <path d="M72.1081 32.594H68.8682V22.5234H72.1081V32.594Z"/>
    <path d="M82.3502 33.249C82.3502 35.5415 81.9018 36.9373 80.8803 37.9276C80.0159 38.6784 78.9062 39.0862 77.7613 39.0738H68.8682V36.0522H77.4455C77.7614 36.0614 78.072 35.9695 78.3322 35.79C78.5923 35.6105 78.7884 35.3527 78.8919 35.0541C79.0674 34.5785 79.1142 34.1067 79.1142 32.7149V22.5234H82.3541L82.3502 33.249Z"/>
    <path d="M56.1934 52.4005C56.1661 54.8411 55.9673 56.0615 55.3201 57.3325C53.9477 60.124 51.3823 61.6718 48.0917 61.6718C43.0584 61.6718 39.3701 58.0538 39.3701 53.0711C39.3701 48.0027 43.0818 44.2988 48.1931 44.2988C51.2809 44.2988 53.7488 45.6439 55.3201 48.1976L52.4778 49.7181C52.0548 48.9509 51.4286 48.3151 50.6679 47.8804C49.9073 47.4457 49.0415 47.229 48.1658 47.2541C45.0468 47.2541 42.7075 49.7181 42.7075 53.0594C42.7075 56.2993 45.0468 58.7165 48.1424 58.7165C50.509 58.7165 52.2556 57.3208 52.5051 55.2076H48.6063V52.3927L56.1934 52.4005Z"/>
    <path d="M64.0958 47.4868V51.175H70.8291V53.9939H64.0958V58.4775H71.0552V61.2963H60.856V44.6719H71.0552V47.4868H64.0958Z"/>
    <path d="M78.9465 47.4868V51.175H85.6914V53.9939H78.9465V58.4775H85.9058V61.2963H75.7183V44.6719H85.9175V47.4868H78.9465Z"/>
    <path d="M93.8986 58.4775H100V61.2963H90.6431V44.6719H93.883L93.8986 58.4775Z"/>
</svg>
